Simulation
nRows=24
nColumns=15
endheader
time  TH_x TH_y TH_z SC_y  SC_z  SC_x  AC_y  AC_z  AC_x  GH_y  GH_z  GH_yy  EL_x  PS_y
1.95  0.000000  0.000000  0.000000  -30.055630048537747  8.822730123721136  38.77727175316148  60.647146910759126  -2.1245286182010985  -6.870977529774119  50.69672952821139  59.83236950835191  -43.54843222987646  22.365903847474513  0.000000
1.989  0.000000  0.000000  0.000000  -29.812943351066636  8.418819907087604  38.9321835408163  60.572110174026584  -3.065181577974797  -7.727022874391391  50.717262705893155  58.83853061707541  -42.59211715956405  22.560552195037705  0.000000
2.028  0.000000  0.000000  0.000000  -29.549270445708853  7.979222640361086  38.84520521359808  60.453943042389795  -3.77485945722663  -8.503961075999506  50.839992510510726  57.59614905621629  -41.75890491967365  22.736008276280554  0.000000
2.067  0.000000  0.000000  0.000000  -29.25801796168097  7.542167066005144  38.24377557727401  60.29262727987842  -4.029345950713269  -9.054503955779829  51.068175086439865  56.17489565167806  -41.0813543611181  22.901782061387678  0.000000
2.106  0.000000  0.000000  0.000000  -28.945122986015186  7.143249424292058  36.79140318669691  60.06730445121294  -3.5900773938475488  -9.203026640282602  51.380674865056776  54.723319143726606  -40.44818721498813  23.072753844442413  0.000000
2.145  0.000000  0.000000  0.000000  -28.58329691304382  6.829626066648613  33.74288222639645  59.74300486337819  -1.9125679392730013  -8.59343831573926  51.68957915371026  53.44343429025783  -39.697244696746466  23.245105335595216  0.000000
2.184  0.000000  0.000000  0.000000  -28.14475761439677  6.4727670323574324  28.63633302716393  59.34228089159237  1.3561425832977418  -7.004722321445041  51.79524946956196  52.36395390745124  -38.6788484256443  23.374486615081047  0.000000
2.223  0.000000  0.000000  0.000000  -27.695758623175525  5.909247295022462  22.579228122160117  58.92018183287233  5.306913516489016  -4.903956687796385  51.57034463727081  51.22394625644382  -37.33820657963557  23.443104854469333  0.000000
2.262  0.000000  0.000000  0.000000  -27.3316853765566  5.211034366213128  17.085445023845438  58.520608867091084  8.740374688150169  -2.9554013971628454  51.14330441099359  49.78165808033615  -35.78120374205307  23.44510821860122  0.000000
2.301  0.000000  0.000000  0.000000  -27.041521059486726  4.485300847980096  12.871442179120896  58.21530616655704  11.151905681837556  -1.5203402495439735  50.60932443719375  48.01460980057817  -34.140299318601535  23.419268096708752  0.000000
2.34  0.000000  0.000000  0.000000  -26.791884440899672  3.8106064134253885  10.110171919495182  58.023564190861904  12.384365777071574  -0.7311849042535672  49.9836617411861  46.10090208572606  -32.46267033005721  23.426419944693702  0.000000
2.379  0.000000  0.000000  0.000000  -26.584267880386705  3.219096741938453  8.514052051654767  57.90087938579181  12.634283538294987  -0.47751772050739305  49.25749131880341  44.20115537891898  -30.69391860810239  23.51840977853553  0.000000
2.418  0.000000  0.000000  0.000000  -26.39305919780536  2.668833421020056  7.619966857189255  57.780212144027324  12.28071061107679  -0.5713215274792374  48.383554188257186  42.36774970160544  -28.726299583241403  23.696128395424452  0.000000
2.457  0.000000  0.000000  0.000000  -26.190812128037052  2.137997138801988  7.046262197431711  57.59152441048731  11.627551835954646  -0.8488282643013106  47.32389491536891  40.592506191805064  -26.480107923781457  23.948019014155864  0.000000
2.496  0.000000  0.000000  0.000000  -25.990723926437905  1.6207737191492326  6.600887259921777  57.31765178227373  10.847036808918544  -1.204753180904968  46.04432757313869  38.83966151210579  -23.91098730524899  24.27512926250504  0.000000
2.535  0.000000  0.000000  0.000000  -25.81517531639582  1.1257864140816314  6.213190172031795  56.96439102376928  10.015571004892266  -1.587445978277991  44.521736006203426  37.09987488160258  -21.01254055015612  24.681516859837547  0.000000
2.574  0.000000  0.000000  0.000000  -25.68379866963209  0.6608556080664155  5.868127495604622  56.54498869597861  9.173204341870447  -1.9762852372341762  42.74602966579085  35.37627659059066  -17.799986182429564  25.169233572189782  0.000000
2.613  0.000000  0.000000  0.000000  -25.601823372368038  0.2375422598072456  5.5534203627288985  56.074519320440494  8.339584485252026  -2.353102447106456  40.714719615947594  33.68159853524996  -14.318364493679946  25.71901325130228  0.000000
2.652  0.000000  0.000000  0.000000  -25.557863608000716  -0.13696147677900897  5.25603000797836  55.57450346290818  7.533960203459972  -2.6992666222605464  38.433491500921065  32.018233375289405  -10.648974592452024  26.286053510448987  0.000000
2.691  0.000000  0.000000  0.000000  -25.536615196493408  -0.4628722583393132  4.964255914326381  55.070805999056475  6.769172391478602  -2.9991972414886883  35.92127271914675  30.383712119677565  -6.894564879578357  26.81276364888499  0.000000
2.73  0.000000  0.000000  0.000000  -25.52855261121035  -0.7385078882443552  4.677994007983249  54.57398419967984  6.05930117154912  -3.253945676294731  33.22986658326216  28.76662653462262  -3.159351733972429  27.251738759174117  0.000000
2.769  0.000000  0.000000  0.000000  -25.533054911438605  -0.9609786206540551  4.403294636339278  54.06771061399486  5.41901657617445  -3.4849162277516386  30.449219996095053  27.1591852121942  0.47291024002203114  27.575422367781457  0.000000
2.808  0.000000  0.000000  0.000000  -25.553358409174976  -1.1233541115832528  4.152516004819369  53.516601959570934  4.861642883915006  -3.732591762121422  27.701628884456955  25.5604912296725  3.9377230045668417  27.776924284995346  0.000000
2.847  0.000000  0.000000  0.000000  -25.591784865402786  -1.218702313318047  3.9492587634805263  52.88753946367758  4.381886641865239  -4.040552853234769  25.115073473688014  23.976291901696005  7.176380808435838  27.861687976658324  0.000000
